<svg width="750" height="767" version="1.1" xmlns="http://www.w3.org/2000/svg" style="width: 1073px; height: 767px;"><g transform="translate(100,104.21938476562502) scale(0.8)"><path class="link" d="M408.16582307832186,326.4245483051135L408.16582307832186,315.54372906521536L569.9673751337618,315.54372906521536" id="node_4370:node_5071" style="fill: none; stroke-width: 3; stroke: grey; cursor: pointer;"></path><path class="link" d="M408.16582307832186,326.4245483051135L408.16582307832186,337.30536754501156L569.9673751337618,337.30536754501156" id="node_4370:node_9826" style="fill: none; stroke-width: 3; stroke: grey; cursor: pointer;"></path><path class="link" d="M196.99362444272433,342.74577716496066L196.99362444272433,326.4245483051135L408.16582307832186,326.4245483051135" id="node_2369:node_4370" style="fill: none; stroke-width: 3; stroke: grey; cursor: pointer;"></path><path class="link" d="M196.99362444272433,342.74577716496066L196.99362444272433,359.0670060248078L569.9673751337617,359.0670060248078" id="node_2369:node_9286" style="fill: none; stroke-width: 3; stroke: grey; cursor: pointer;"></path><path class="link" d="M451.5792633207884,282.9012713455211L451.5792633207884,272.020452105623L569.9673751337618,272.020452105623" id="node_5948:node_5667" style="fill: none; stroke-width: 3; stroke: grey; cursor: pointer;"></path><path class="link" d="M451.5792633207884,282.9012713455211L451.5792633207884,293.7820905854192L569.9673751337618,293.7820905854192" id="node_5948:node_6466" style="fill: none; stroke-width: 3; stroke: grey; cursor: pointer;"></path><path class="link" d="M204.17576638077597,231.21738537322315L204.17576638077597,212.1759571206195L284.44254253721556,212.1759571206195" id="node_3457:node_2987" style="fill: none; stroke-width: 3; stroke: grey; cursor: pointer;"></path><path class="link" d="M204.17576638077597,231.21738537322315L204.17576638077597,250.2588136258268L569.9625902290729,250.2588136258268" id="node_3457:node_2018" style="fill: none; stroke-width: 3; stroke: grey; cursor: pointer;"></path><path class="link" d="M215.3772282575107,89.08670752666569L215.3772282575107,38.08286733964336L413.74980685027805,38.08286733964336" id="node_4067:node_2141" style="fill: none; stroke-width: 3; stroke: grey; cursor: pointer;"></path><path class="link" d="M215.3772282575107,89.08670752666569L215.3772282575107,140.09054771368807L548.8085265994087,140.09054771368807" id="node_4067:node_9596" style="fill: none; stroke-width: 3; stroke: grey; cursor: pointer;"></path><path class="link" d="M193.08914221657503,160.1520464499444L193.08914221657503,89.08670752666569L215.3772282575107,89.08670752666569" id="node_7875:node_4067" style="fill: none; stroke-width: 3; stroke: grey; cursor: pointer;"></path><path class="link" d="M193.08914221657503,160.1520464499444L193.08914221657503,231.21738537322315L204.17576638077597,231.21738537322315" id="node_7875:node_3457" style="fill: none; stroke-width: 3; stroke: grey; cursor: pointer;"></path><path class="link" d="M94.42440753128236,221.52665889773274L94.42440753128236,160.1520464499444L193.08914221657503,160.1520464499444" id="node_9743:node_7875" style="fill: none; stroke-width: 3; stroke: grey; cursor: pointer;"></path><path class="link" d="M94.42440753128236,221.52665889773274L94.42440753128236,282.9012713455211L451.5792633207884,282.9012713455211" id="node_9743:node_5948" style="fill: none; stroke-width: 3; stroke: grey; cursor: pointer;"></path><path class="link" d="M93.28081531063323,282.1362180313467L93.28081531063323,221.52665889773274L94.42440753128236,221.52665889773274" id="node_9356:node_9743" style="fill: none; stroke-width: 3; stroke: grey; cursor: pointer;"></path><path class="link" d="M93.28081531063323,282.1362180313467L93.28081531063323,342.74577716496066L196.99362444272433,342.74577716496066" id="node_9356:node_2369" style="fill: none; stroke-width: 3; stroke: grey; cursor: pointer;"></path><path class="link" d="M91.27594024598058,367.48863079730404L91.27594024598058,282.1362180313467L93.28081531063323,282.1362180313467" id="node_6843:node_9356" style="fill: none; stroke-width: 3; stroke: grey; cursor: pointer;"></path><path class="link" d="M91.27594024598058,367.48863079730404L91.27594024598058,452.8410435632613L94.07989439368095,452.8410435632613" id="node_6843:node_5204" style="fill: none; stroke-width: 3; stroke: grey; cursor: pointer;"></path><path class="link" d="M89.96966126590857,457.0518559495094L89.96966126590857,367.48863079730404L91.27594024598058,367.48863079730404" id="node_1257:node_6843" style="fill: none; stroke-width: 3; stroke: grey; cursor: pointer;"></path><path class="link" d="M89.96966126590857,457.0518559495094L89.96966126590857,546.6150811017148L409.2137172051928,546.6150811017148" id="node_1257:node_5103" style="fill: none; stroke-width: 3; stroke: grey; cursor: pointer;"></path><path class="link" d="M69.15054096446781,512.7142877655103L69.15054096446781,457.0518559495094L89.96966126590857,457.0518559495094" id="node_6828:node_1257" style="fill: none; stroke-width: 3; stroke: grey; cursor: pointer;"></path><path class="link" d="M69.15054096446781,512.7142877655103L69.15054096446781,568.3767195815111L569.9625902290729,568.3767195815111" id="node_6828:node_4330" style="fill: none; stroke-width: 3; stroke: grey; cursor: pointer;"></path><path class="link" d="M57.55671690324259,551.4263229134087L57.55671690324259,512.7142877655103L69.15054096446781,512.7142877655103" id="node_2160:node_6828" style="fill: none; stroke-width: 3; stroke: grey; cursor: pointer;"></path><path class="link" d="M57.55671690324259,551.4263229134087L57.55671690324259,590.1383580613073L569.9625902290729,590.1383580613073" id="node_2160:node_8572" style="fill: none; stroke-width: 3; stroke: grey; cursor: pointer;"></path><path class="link" d="M23.94754636834949,581.663159727256L23.94754636834949,551.4263229134087L57.55671690324259,551.4263229134087" id="node_1582:node_2160" style="fill: none; stroke-width: 3; stroke: grey; cursor: pointer;"></path><path class="link" d="M23.94754636834949,581.663159727256L23.94754636834949,611.8999965411034L569.9625902290729,611.8999965411034" id="node_1582:node_6864" style="fill: none; stroke-width: 3; stroke: grey; cursor: pointer;"></path><path class="link" d="M20,607.6623973740778L20,581.663159727256L23.94754636834949,581.663159727256" id="node_2495:node_1582" style="fill: none; stroke-width: 3; stroke: grey; cursor: pointer;"></path><path class="link" d="M20,607.6623973740778L20,633.6616350208996L569.9625902290729,633.6616350208996" id="node_2495:node_1582" style="fill: none; stroke-width: 3; stroke: grey; cursor: pointer;"></path><path class="link" d="M548.8085265994087,140.09054771368807L548.8085265994087,116.96880682890458L551.8086618393543,116.96880682890458" id="node_9596:node_2916" style="fill: none; stroke-width: 3; stroke: grey; cursor: pointer;"></path><path class="link" d="M548.8085265994087,140.09054771368807L548.8085265994087,163.21228859847153L569.962590229073,163.21228859847153" id="node_9596:node_7332" style="fill: none; stroke-width: 3; stroke: grey; cursor: pointer;"></path><path class="link" d="M551.8086618393543,116.96880682890458L551.8086618393543,92.48696353913385L556.7706080017523,92.48696353913385" id="node_2916:node_9961" style="fill: none; stroke-width: 3; stroke: grey; cursor: pointer;"></path><path class="link" d="M551.8086618393543,116.96880682890458L551.8086618393543,141.4506501186753L569.962590229073,141.4506501186753" id="node_2916:node_3468" style="fill: none; stroke-width: 3; stroke: grey; cursor: pointer;"></path><path class="link" d="M556.7706080017523,92.48696353913385L556.7706080017523,76.16573467928671L569.962590229073,76.16573467928671" id="node_9961:node_1365" style="fill: none; stroke-width: 3; stroke: grey; cursor: pointer;"></path><path class="link" d="M556.7706080017523,92.48696353913385L556.7706080017523,108.808192398981L558.0673171724465,108.808192398981" id="node_9961:node_1236" style="fill: none; stroke-width: 3; stroke: grey; cursor: pointer;"></path><path class="link" d="M558.0673171724465,108.808192398981L558.0673171724465,97.9273731590829L569.962590229073,97.9273731590829" id="node_1236:node_6378" style="fill: none; stroke-width: 3; stroke: grey; cursor: pointer;"></path><path class="link" d="M558.0673171724465,108.808192398981L558.0673171724465,119.6890116388791L569.962590229073,119.6890116388791" id="node_1236:node_9521" style="fill: none; stroke-width: 3; stroke: grey; cursor: pointer;"></path><path class="link" d="M440.84672210356666,21.761638479796204L440.84672210356666,10.8808192398981L569.9625902290729,10.8808192398981" id="node_2908:node_6206" style="fill: none; stroke-width: 3; stroke: grey; cursor: pointer;"></path><path class="link" d="M440.84672210356666,21.761638479796204L440.84672210356666,32.6424577196943L569.9625902290729,32.6424577196943" id="node_2908:node_2317" style="fill: none; stroke-width: 3; stroke: grey; cursor: pointer;"></path><path class="link" d="M413.74980685027805,38.08286733964336L413.74980685027805,21.761638479796204L440.84672210356666,21.761638479796204" id="node_2141:node_2908" style="fill: none; stroke-width: 3; stroke: grey; cursor: pointer;"></path><path class="link" d="M413.74980685027805,38.08286733964336L413.74980685027805,54.4040961994905L569.9625902290729,54.4040961994905" id="node_2141:node_8824" style="fill: none; stroke-width: 3; stroke: grey; cursor: pointer;"></path><path class="link" d="M326.2099502216004,195.85474505645087L326.2099502216004,184.97393303951014L569.9576320694927,184.97393303951014" id="node_3488:node_7372" style="fill: none; stroke-width: 3; stroke: grey; cursor: pointer;"></path><path class="link" d="M326.2099502216004,195.85474505645087L326.2099502216004,206.73555707339162L569.9576320694927,206.73555707339162" id="node_3488:node_8958" style="fill: none; stroke-width: 3; stroke: grey; cursor: pointer;"></path><path class="link" d="M284.44254253721556,212.17596308186194L284.44254253721556,195.85474505645087L326.2099502216004,195.85474505645087" id="node_2987:node_3488" style="fill: none; stroke-width: 3; stroke: grey; cursor: pointer;"></path><path class="link" d="M284.44254253721556,212.17596308186194L284.44254253721556,228.49718110727304L569.962416971278,228.49718110727304" id="node_2987:node_7111" style="fill: none; stroke-width: 3; stroke: grey; cursor: pointer;"></path><g class="node" transform="translate(569.9625854492188,633.66162109375)" id="node_1582" style="cursor: crosshair;"><circle class="node" r="4" style="fill: black;"></circle><rect class="node" y="-4px" x="-4px" width="0px" height="0px" style="stroke-width: 2px; stroke: black;"></rect><text x="13" dy=".3em" dx="-.3em" text-anchor="start" font-size="14px" style="fill-opacity: 1; font-family: sans-serif; font-weight: normal; fill: black;">2935_OM-RGC_v1_014936362</text><text class="triangleText" dy=".35em" font-size="14px" style="fill-opacity: 1e-06; font-family: sans-serif;"></text><path d="M0,0L0,0L0,0L0,0"></path></g><g class="node" transform="translate(569.9625854492188,611.9000244140625)" id="node_6864" style="cursor: crosshair;"><circle class="node" r="4" style="fill: black;"></circle><rect class="node" y="-4px" x="-4px" width="0px" height="0px" style="stroke-width: 2px; stroke: black;"></rect><text x="13" dy=".3em" dx="-.3em" text-anchor="start" font-size="14px" style="fill-opacity: 1; font-family: sans-serif; font-weight: normal; fill: black;">3106_OM-RGC_v1_013844448</text><text class="triangleText" dy=".35em" font-size="14px" style="fill-opacity: 1e-06; font-family: sans-serif;"></text><path d="M0,0L0,0L0,0L0,0"></path></g><g class="node" transform="translate(569.9625854492188,590.1383666992188)" id="node_8572" style="cursor: crosshair;"><circle class="node" r="4" style="fill: black;"></circle><rect class="node" y="-4px" x="-4px" width="0px" height="0px" style="stroke-width: 2px; stroke: black;"></rect><text x="13" dy=".3em" dx="-.3em" text-anchor="start" font-size="14px" style="fill-opacity: 1; font-family: sans-serif; font-weight: normal; fill: black;">3112_OM-RGC_v1_013387064</text><text class="triangleText" dy=".35em" font-size="14px" style="fill-opacity: 1e-06; font-family: sans-serif;"></text><path d="M0,0L0,0L0,0L0,0"></path></g><g class="node" transform="translate(569.9625854492188,568.376708984375)" id="node_4330" style="cursor: crosshair;"><circle class="node" r="4" style="fill: black;"></circle><rect class="node" y="-4px" x="-4px" width="0px" height="0px" style="stroke-width: 2px; stroke: black;"></rect><text x="13" dy=".3em" dx="-.3em" text-anchor="start" font-size="14px" style="fill-opacity: 1; font-family: sans-serif; font-weight: normal; fill: black;">3093_OM-RGC_v1_014824570</text><text class="triangleText" dy=".35em" font-size="14px" style="fill-opacity: 1e-06; font-family: sans-serif;"></text><path d="M0,0L0,0L0,0L0,0"></path></g><g class="node" transform="translate(569.9673461914062,359.0670166015625)" id="node_9286" style="cursor: crosshair;"><circle class="node" r="4" style="fill: black;"></circle><rect class="node" y="-4px" x="-4px" width="0px" height="0px" style="stroke-width: 2px; stroke: black;"></rect><text x="13" dy=".3em" dx="-.3em" text-anchor="start" font-size="14px" style="fill-opacity: 1; font-family: sans-serif; font-weight: normal; fill: black;">2766_OM-RGC_v1_013007410</text><text class="triangleText" dy=".35em" font-size="14px" style="fill-opacity: 1e-06; font-family: sans-serif;"></text><path d="M0,0L0,0L0,0L0,0"></path></g><g class="node" transform="translate(569.9673461914062,337.3053894042969)" id="node_9826" style="cursor: crosshair;"><circle class="node" r="4" style="fill: black;"></circle><rect class="node" y="-4px" x="-4px" width="0px" height="0px" style="stroke-width: 2px; stroke: black;"></rect><text x="13" dy=".3em" dx="-.3em" text-anchor="start" font-size="14px" style="fill-opacity: 1; font-family: sans-serif; font-weight: normal; fill: black;">11_GtACR1</text><text class="triangleText" dy=".35em" font-size="14px" style="fill-opacity: 1e-06; font-family: sans-serif;"></text><path d="M0,0L0,0L0,0L0,0"></path></g><g class="node" transform="translate(569.9673461914062,315.5437316894531)" id="node_5071" style="cursor: crosshair;"><circle class="node" r="4" style="fill: black;"></circle><rect class="node" y="-4px" x="-4px" width="0px" height="0px" style="stroke-width: 2px; stroke: black;"></rect><text x="13" dy=".3em" dx="-.3em" text-anchor="start" font-size="14px" style="fill-opacity: 1; font-family: sans-serif; font-weight: normal; fill: black;">10_GtACR2</text><text class="triangleText" dy=".35em" font-size="14px" style="fill-opacity: 1e-06; font-family: sans-serif;"></text><path d="M0,0L0,0L0,0L0,0"></path></g><g class="node" transform="translate(408.16583251953125,326.424560546875)" id="node_4370" style="cursor: crosshair;"><circle class="node" r="4" style="fill: black;"></circle><rect class="node" y="-4px" x="-4px" width="0px" height="0px" style="stroke-width: 2px; stroke: black;"></rect><text x="-13" dy="-.3em" dx=".3em" text-anchor="end" font-size="14px" style="fill-opacity: 1; font-family: sans-serif; font-weight: normal;"></text><text class="triangleText" dy=".35em" font-size="14px" style="fill-opacity: 1e-06; font-family: sans-serif;" x="0"></text><path d="M0,0L0,0L0,0L0,0"></path></g><g class="node" transform="translate(196.99362182617188,342.74578857421875)" id="node_2369" style="cursor: crosshair;"><circle class="node" r="4" style="fill: black;"></circle><rect class="node" y="-4px" x="-4px" width="0px" height="0px" style="stroke-width: 2px; stroke: black;"></rect><text x="-13" dy="-.3em" dx=".3em" text-anchor="end" font-size="14px" style="fill-opacity: 1; font-family: sans-serif; font-weight: normal;"></text><text class="triangleText" dy=".35em" font-size="14px" style="fill-opacity: 1e-06; font-family: sans-serif;" x="0"></text><path d="M0,0L0,0L0,0L0,0"></path></g><g class="node" transform="translate(569.9673461914062,293.7821044921875)" id="node_6466" style="cursor: crosshair;"><circle class="node" r="4" style="fill: black;"></circle><rect class="node" y="-4px" x="-4px" width="0px" height="0px" style="stroke-width: 2px; stroke: black;"></rect><text x="13" dy=".3em" dx="-.3em" text-anchor="start" font-size="14px" style="fill-opacity: 1; font-family: sans-serif; font-weight: normal; fill: black;">9_ChR2_Cterm</text><text class="triangleText" dy=".35em" font-size="14px" style="fill-opacity: 1e-06; font-family: sans-serif;"></text><path d="M0,0L0,0L0,0L0,0"></path></g><g class="node" transform="translate(569.9673461914062,272.0204772949219)" id="node_5667" style="cursor: crosshair;"><circle class="node" r="4" style="fill: black;"></circle><rect class="node" y="-4px" x="-4px" width="0px" height="0px" style="stroke-width: 2px; stroke: black;"></rect><text x="13" dy=".3em" dx="-.3em" text-anchor="start" font-size="14px" style="fill-opacity: 1; font-family: sans-serif; font-weight: normal; fill: black;">8_ChR1_Cterm</text><text class="triangleText" dy=".35em" font-size="14px" style="fill-opacity: 1e-06; font-family: sans-serif;"></text><path d="M0,0L0,0L0,0L0,0"></path></g><g class="node" transform="translate(451.5792541503906,282.9012756347656)" id="node_5948" style="cursor: crosshair;"><circle class="node" r="4" style="fill: black;"></circle><rect class="node" y="-4px" x="-4px" width="0px" height="0px" style="stroke-width: 2px; stroke: black;"></rect><text x="-13" dy="-.3em" dx=".3em" text-anchor="end" font-size="14px" style="fill-opacity: 1; font-family: sans-serif; font-weight: normal;"></text><text class="triangleText" dy=".35em" font-size="14px" style="fill-opacity: 1e-06; font-family: sans-serif;" x="0"></text><path d="M0,0L0,0L0,0L0,0"></path></g><g class="node" transform="translate(569.9625854492188,250.2588348388672)" id="node_2018" style="cursor: crosshair;"><circle class="node" r="4" style="fill: black;"></circle><rect class="node" y="-4px" x="-4px" width="0px" height="0px" style="stroke-width: 2px; stroke: black;"></rect><text x="13" dy=".3em" dx="-.3em" text-anchor="start" font-size="14px" style="fill-opacity: 1; font-family: sans-serif; font-weight: normal; fill: black;">2892_OM-RGC_v1_010613605</text><text class="triangleText" dy=".35em" font-size="14px" style="fill-opacity: 1e-06; font-family: sans-serif;"></text><path d="M0,0L0,0L0,0L0,0"></path></g><g class="node" transform="translate(204.17576599121094,231.21739196777344)" id="node_3457" style="cursor: crosshair;"><circle class="node" r="4" style="fill: black;"></circle><rect class="node" y="-4px" x="-4px" width="0px" height="0px" style="stroke-width: 2px; stroke: black;"></rect><text x="-13" dy="-.3em" dx=".3em" text-anchor="end" font-size="14px" style="fill-opacity: 1; font-family: sans-serif; font-weight: normal;"></text><text class="triangleText" dy=".35em" font-size="14px" style="fill-opacity: 1e-06; font-family: sans-serif;" x="0"></text><path d="M0,0L0,0L0,0L0,0"></path></g><g class="node" transform="translate(215.37722778320312,89.08670043945312)" id="node_4067" style="cursor: crosshair;"><circle class="node" r="4" style="fill: black;"></circle><rect class="node" y="-4px" x="-4px" width="0px" height="0px" style="stroke-width: 2px; stroke: black;"></rect><text x="-13" dy="-.3em" dx=".3em" text-anchor="end" font-size="14px" style="fill-opacity: 1; font-family: sans-serif; font-weight: normal;"></text><text class="triangleText" dy=".35em" font-size="14px" style="fill-opacity: 1e-06; font-family: sans-serif;" x="0"></text><path d="M0,0L0,0L0,0L0,0"></path></g><g class="node" transform="translate(91.27593994140625,367.4886474609375)" id="node_6843" style="cursor: crosshair;"><circle class="node" r="4" style="fill: black;"></circle><rect class="node" y="-4px" x="-4px" width="0px" height="0px" style="stroke-width: 2px; stroke: black;"></rect><text x="-13" dy="-.3em" dx=".3em" text-anchor="end" font-size="14px" style="fill-opacity: 1; font-family: sans-serif; font-weight: normal;"></text><text class="triangleText" dy=".35em" font-size="14px" style="fill-opacity: 1e-06; font-family: sans-serif;" x="0"></text><path d="M0,0L0,0L0,0L0,0"></path></g><g class="node" transform="translate(89.96965789794922,457.0518493652344)" id="node_1257" style="cursor: crosshair;"><circle class="node" r="4" style="fill: black;"></circle><rect class="node" y="-4px" x="-4px" width="0px" height="0px" style="stroke-width: 2px; stroke: black;"></rect><text x="-13" dy="-.3em" dx=".3em" text-anchor="end" font-size="14px" style="fill-opacity: 1; font-family: sans-serif; font-weight: normal;"></text><text class="triangleText" dy=".35em" font-size="14px" style="fill-opacity: 1e-06; font-family: sans-serif;" x="0"></text><path d="M0,0L0,0L0,0L0,0"></path></g><g class="node" transform="translate(69.15054321289062,512.7142944335938)" id="node_6828" style="cursor: crosshair;"><circle class="node" r="4" style="fill: black;"></circle><rect class="node" y="-4px" x="-4px" width="0px" height="0px" style="stroke-width: 2px; stroke: black;"></rect><text x="-13" dy="-.3em" dx=".3em" text-anchor="end" font-size="14px" style="fill-opacity: 1; font-family: sans-serif; font-weight: normal;"></text><text class="triangleText" dy=".35em" font-size="14px" style="fill-opacity: 1e-06; font-family: sans-serif;" x="0"></text><path d="M0,0L0,0L0,0L0,0"></path></g><g class="node" transform="translate(409.2137145996094,546.6151123046875)" id="node_5103" style="cursor: crosshair;"><circle class="node" r="4" style="fill: orange;"></circle><rect class="node" y="-4px" x="-4px" width="0px" height="0px" style="stroke-width: 2px; stroke: black;"></rect><text x="-13" dy="-.3em" dx=".3em" text-anchor="end" font-size="14px" style="fill-opacity: 1; font-family: sans-serif; font-weight: normal;"></text><text class="triangleText" dy=".35em" font-size="14px" style="fill-opacity: 1; font-family: sans-serif; font-weight: normal; fill: rgb(0, 0, 0);" x="165.74887302388004">2156, 2347, 2514, 3099, 3100</text><path d="M0,0L160.74887302388004,-0.1338282504012841L160.74887302388004,0.1338282504012841L0,0" style="fill: rgb(0, 0, 0);"></path></g><g class="node" transform="translate(94.07989501953125,452.841064453125)" id="node_5204" style="cursor: crosshair;"><circle class="node" r="4" style="fill: orange;"></circle><rect class="node" y="-4px" x="-4px" width="0px" height="0px" style="stroke-width: 2px; stroke: black;"></rect><text x="-13" dy="-.3em" dx=".3em" text-anchor="end" font-size="14px" style="fill-opacity: 1; font-family: sans-serif; font-weight: normal;"></text><text class="triangleText" dy=".35em" font-size="14px" style="fill-opacity: 1; font-family: sans-serif; font-weight: normal; fill: rgb(0, 0, 0);" x="480.88368565541265">13, 98, 40, 22, 51, 57, 71, 14, 15, 16...</text><path d="M0,0L475.88368565541265,-82.67909309791332L475.88368565541265,82.67909309791332L0,0" style="fill: rgb(0, 0, 0);"></path></g><g class="node" transform="translate(57.55671691894531,551.4263305664062)" id="node_2160" style="cursor: crosshair;"><circle class="node" r="4" style="fill: black;"></circle><rect class="node" y="-4px" x="-4px" width="0px" height="0px" style="stroke-width: 2px; stroke: black;"></rect><text x="-13" dy="-.3em" dx=".3em" text-anchor="end" font-size="14px" style="fill-opacity: 1; font-family: sans-serif; font-weight: normal;"></text><text class="triangleText" dy=".35em" font-size="14px" style="fill-opacity: 1e-06; font-family: sans-serif;" x="0"></text><path d="M0,0L0,0L0,0L0,0"></path></g><g class="node" transform="translate(23.947546005249023,581.6631469726562)" id="node_1582" style="cursor: crosshair;"><circle class="node" r="4" style="fill: black;"></circle><rect class="node" y="-4px" x="-4px" width="0px" height="0px" style="stroke-width: 2px; stroke: black;"></rect><text x="-13" dy="-.3em" dx=".3em" text-anchor="end" font-size="14px" style="fill-opacity: 1; font-family: sans-serif; font-weight: normal;"></text><text class="triangleText" dy=".35em" font-size="14px" style="fill-opacity: 1e-06; font-family: sans-serif;" x="0"></text><path d="M0,0L0,0L0,0L0,0"></path></g><g class="node" transform="translate(20,607.6624145507812)" id="node_2495" style="cursor: crosshair;"><circle class="node" r="4" style="fill: black;"></circle><rect class="node" y="-4px" x="-4px" width="0px" height="0px" style="stroke-width: 2px; stroke: black;"></rect><text x="-13" dy="-.3em" dx=".3em" text-anchor="end" font-size="14px" style="fill-opacity: 1; font-family: sans-serif; font-weight: normal;"></text><text class="triangleText" dy=".35em" font-size="14px" style="fill-opacity: 1e-06; font-family: sans-serif;" x="0"></text><path d="M0,0L0,0L0,0L0,0"></path></g><g class="node" transform="translate(193.08914184570312,160.1520538330078)" id="node_7875" style="cursor: crosshair;"><circle class="node" r="4" style="fill: black;"></circle><rect class="node" y="-4px" x="-4px" width="0px" height="0px" style="stroke-width: 2px; stroke: black;"></rect><text x="-13" dy="-.3em" dx=".3em" text-anchor="end" font-size="14px" style="fill-opacity: 1; font-family: sans-serif; font-weight: normal;"></text><text class="triangleText" dy=".35em" font-size="14px" style="fill-opacity: 1e-06; font-family: sans-serif;" x="0"></text><path d="M0,0L0,0L0,0L0,0"></path></g><g class="node" transform="translate(94.42440795898438,221.52667236328125)" id="node_9743" style="cursor: crosshair;"><circle class="node" r="4" style="fill: black;"></circle><rect class="node" y="-4px" x="-4px" width="0px" height="0px" style="stroke-width: 2px; stroke: black;"></rect><text x="-13" dy="-.3em" dx=".3em" text-anchor="end" font-size="14px" style="fill-opacity: 1; font-family: sans-serif; font-weight: normal;"></text><text class="triangleText" dy=".35em" font-size="14px" style="fill-opacity: 1e-06; font-family: sans-serif;" x="0"></text><path d="M0,0L0,0L0,0L0,0"></path></g><g class="node" transform="translate(93.28081512451172,282.13623046875)" id="node_9356" style="cursor: crosshair;"><circle class="node" r="4" style="fill: black;"></circle><rect class="node" y="-4px" x="-4px" width="0px" height="0px" style="stroke-width: 2px; stroke: black;"></rect><text x="-13" dy="-.3em" dx=".3em" text-anchor="end" font-size="14px" style="fill-opacity: 1; font-family: sans-serif; font-weight: normal;"></text><text class="triangleText" dy=".35em" font-size="14px" style="fill-opacity: 1e-06; font-family: sans-serif;" x="0"></text><path d="M0,0L0,0L0,0L0,0"></path></g><g class="node" transform="translate(548.8085327148438,140.09054565429688)" id="node_9596" style="cursor: crosshair;"><circle class="node" r="4" style="fill: black;"></circle><rect class="node" y="-4px" x="-4px" width="0px" height="0px" style="stroke-width: 2px; stroke: black;"></rect><text x="-13" dy="-.3em" dx=".3em" text-anchor="end" font-size="14px" style="fill-opacity: 1; font-family: sans-serif; font-weight: normal;"></text><text class="triangleText" dy=".35em" font-size="14px" style="fill-opacity: 1e-06; font-family: sans-serif; font-weight: normal; fill: rgb(0, 0, 0);" x="0"></text><path d="M0,0L0,0L0,0L0,0" style="fill: rgb(0, 0, 0);"></path></g><g class="node" transform="translate(569.9625854492188,163.2122802734375)" id="node_7332" style="cursor: crosshair;"><circle class="node" r="4" style="fill: black;"></circle><rect class="node" y="-4px" x="-4px" width="0px" height="0px" style="stroke-width: 2px; stroke: black;"></rect><text x="13" dy=".3em" dx="-.3em" text-anchor="start" font-size="14px" style="fill-opacity: 1; font-family: sans-serif; font-weight: normal; fill: black;">6_pACR6</text><text class="triangleText" dy=".35em" font-size="14px" style="fill-opacity: 1e-06; font-family: sans-serif;"></text><path d="M0,0L0,0L0,0L0,0"></path></g><g class="node" transform="translate(551.8086547851562,116.96880340576172)" id="node_2916" style="cursor: crosshair;"><circle class="node" r="4" style="fill: black;"></circle><rect class="node" y="-4px" x="-4px" width="0px" height="0px" style="stroke-width: 2px; stroke: black;"></rect><text x="-13" dy="-.3em" dx=".3em" text-anchor="end" font-size="14px" style="fill-opacity: 1; font-family: sans-serif; font-weight: normal;"></text><text class="triangleText" dy=".35em" font-size="14px" style="fill-opacity: 1e-06; font-family: sans-serif; font-weight: normal; fill: rgb(0, 0, 0);" x="0"></text><path d="M0,0L0,0L0,0L0,0" style="fill: rgb(0, 0, 0);"></path></g><g class="node" transform="translate(569.9625854492188,141.4506378173828)" id="node_3468" style="cursor: crosshair;"><circle class="node" r="4" style="fill: black;"></circle><rect class="node" y="-4px" x="-4px" width="0px" height="0px" style="stroke-width: 2px; stroke: black;"></rect><text x="13" dy=".3em" dx="-.3em" text-anchor="start" font-size="14px" style="fill-opacity: 1; font-family: sans-serif; font-weight: normal; fill: black;">4_pACR4</text><text class="triangleText" dy=".35em" font-size="14px" style="fill-opacity: 1e-06; font-family: sans-serif;"></text><path d="M0,0L0,0L0,0L0,0"></path></g><g class="node" transform="translate(556.7706298828125,92.4869613647461)" id="node_9961" style="cursor: crosshair;"><circle class="node" r="4" style="fill: black;"></circle><rect class="node" y="-4px" x="-4px" width="0px" height="0px" style="stroke-width: 2px; stroke: black;"></rect><text x="-13" dy="-.3em" dx=".3em" text-anchor="end" font-size="14px" style="fill-opacity: 1; font-family: sans-serif; font-weight: normal;"></text><text class="triangleText" dy=".35em" font-size="14px" style="fill-opacity: 1e-06; font-family: sans-serif; font-weight: normal; fill: rgb(0, 0, 0);" x="0"></text><path d="M0,0L0,0L0,0L0,0" style="fill: rgb(0, 0, 0);"></path></g><g class="node" transform="translate(569.9625854492188,76.16573333740234)" id="node_1365" style="cursor: crosshair;"><circle class="node" r="4" style="fill: black;"></circle><rect class="node" y="-4px" x="-4px" width="0px" height="0px" style="stroke-width: 2px; stroke: black;"></rect><text x="13" dy=".3em" dx="-.3em" text-anchor="start" font-size="14px" style="fill-opacity: 1; font-family: sans-serif; font-weight: normal; fill: black;">3_pACR3</text><text class="triangleText" dy=".35em" font-size="14px" style="fill-opacity: 1e-06; font-family: sans-serif;"></text><path d="M0,0L0,0L0,0L0,0"></path></g><g class="node" transform="translate(558.0673217773438,108.80818939208984)" id="node_1236" style="cursor: crosshair;"><circle class="node" r="4" style="fill: black;"></circle><rect class="node" y="-4px" x="-4px" width="0px" height="0px" style="stroke-width: 2px; stroke: black;"></rect><text x="-13" dy="-.3em" dx=".3em" text-anchor="end" font-size="14px" style="fill-opacity: 1; font-family: sans-serif; font-weight: normal;"></text><text class="triangleText" dy=".35em" font-size="14px" style="fill-opacity: 1e-06; font-family: sans-serif; font-weight: normal; fill: rgb(0, 0, 0);" x="0"></text><path d="M0,0L0,0L0,0L0,0" style="fill: rgb(0, 0, 0);"></path></g><g class="node" transform="translate(569.9625854492188,119.68900299072266)" id="node_9521" style="cursor: crosshair;"><circle class="node" r="4" style="fill: black;"></circle><rect class="node" y="-4px" x="-4px" width="0px" height="0px" style="stroke-width: 2px; stroke: black;"></rect><text x="13" dy=".3em" dx="-.3em" text-anchor="start" font-size="14px" style="fill-opacity: 1; font-family: sans-serif; font-weight: normal; fill: black;">12_OM-RGC_v1_004483249</text><text class="triangleText" dy=".35em" font-size="14px" style="fill-opacity: 1e-06; font-family: sans-serif;"></text><path d="M0,0L0,0L0,0L0,0"></path></g><g class="node" transform="translate(569.9625854492188,97.9273681640625)" id="node_6378" style="cursor: crosshair;"><circle class="node" r="4" style="fill: black;"></circle><rect class="node" y="-4px" x="-4px" width="0px" height="0px" style="stroke-width: 2px; stroke: black;"></rect><text x="13" dy=".3em" dx="-.3em" text-anchor="start" font-size="14px" style="fill-opacity: 1; font-family: sans-serif; font-weight: normal; fill: black;">5_pACR5</text><text class="triangleText" dy=".35em" font-size="14px" style="fill-opacity: 1e-06; font-family: sans-serif;"></text><path d="M0,0L0,0L0,0L0,0"></path></g><g class="node" transform="translate(413.74981689453125,38.08286666870117)" id="node_2141" style="cursor: crosshair;"><circle class="node" r="4" style="fill: black;"></circle><rect class="node" y="-4px" x="-4px" width="0px" height="0px" style="stroke-width: 2px; stroke: black;"></rect><text x="-13" dy="-.3em" dx=".3em" text-anchor="end" font-size="14px" style="fill-opacity: 1; font-family: sans-serif; font-weight: normal;"></text><text class="triangleText" dy=".35em" font-size="14px" style="fill-opacity: 1e-06; font-family: sans-serif; font-weight: normal; fill: rgb(0, 0, 0);" x="0"></text><path d="M0,0L0,0L0,0L0,0" style="fill: rgb(0, 0, 0);"></path></g><g class="node" transform="translate(569.9625854492188,54.40409469604492)" id="node_8824" style="cursor: crosshair;"><circle class="node" r="4" style="fill: black;"></circle><rect class="node" y="-4px" x="-4px" width="0px" height="0px" style="stroke-width: 2px; stroke: black;"></rect><text x="13" dy=".3em" dx="-.3em" text-anchor="start" font-size="14px" style="fill-opacity: 1; font-family: sans-serif; font-weight: normal; fill: black;">2_pACR2</text><text class="triangleText" dy=".35em" font-size="14px" style="fill-opacity: 1e-06; font-family: sans-serif;"></text><path d="M0,0L0,0L0,0L0,0"></path></g><g class="node" transform="translate(569.9625854492188,32.6424560546875)" id="node_2317" style="cursor: crosshair;"><circle class="node" r="4" style="fill: black;"></circle><rect class="node" y="-4px" x="-4px" width="0px" height="0px" style="stroke-width: 2px; stroke: black;"></rect><text x="13" dy=".3em" dx="-.3em" text-anchor="start" font-size="14px" style="fill-opacity: 1; font-family: sans-serif; font-weight: normal; fill: black;">7_pACR7</text><text class="triangleText" dy=".35em" font-size="14px" style="fill-opacity: 1e-06; font-family: sans-serif;"></text><path d="M0,0L0,0L0,0L0,0"></path></g><g class="node" transform="translate(569.9625854492188,10.880818367004395)" id="node_6206" style="cursor: crosshair;"><circle class="node" r="4" style="fill: black;"></circle><rect class="node" y="-4px" x="-4px" width="0px" height="0px" style="stroke-width: 2px; stroke: black;"></rect><text x="13" dy=".3em" dx="-.3em" text-anchor="start" font-size="14px" style="fill-opacity: 1; font-family: sans-serif; font-weight: normal; fill: black;">1_pACR1</text><text class="triangleText" dy=".35em" font-size="14px" style="fill-opacity: 1e-06; font-family: sans-serif;"></text><path d="M0,0L0,0L0,0L0,0"></path></g><g class="node" transform="translate(440.8467102050781,21.76163673400879)" id="node_2908" style="cursor: crosshair;"><circle class="node" r="4" style="fill: black;"></circle><rect class="node" y="-4px" x="-4px" width="0px" height="0px" style="stroke-width: 2px; stroke: black;"></rect><text x="-13" dy="-.3em" dx=".3em" text-anchor="end" font-size="14px" style="fill-opacity: 1; font-family: sans-serif; font-weight: normal;"></text><text class="triangleText" dy=".35em" font-size="14px" style="fill-opacity: 1e-06; font-family: sans-serif;" x="0"></text><path d="M0,0L0,0L0,0L0,0"></path></g><g class="node" transform="translate(284.4425354003906,212.17596435546875)" id="node_2987" style="cursor: crosshair;"><circle class="node" r="4" style="fill: black;"></circle><rect class="node" y="-4px" x="-4px" width="0px" height="0px" style="stroke-width: 2px; stroke: black;"></rect><text x="-13" dy="-.3em" dx=".3em" text-anchor="end" font-size="14px" style="fill-opacity: 1; font-family: sans-serif; font-weight: normal;"></text><text class="triangleText" dy=".35em" font-size="14px" style="fill-opacity: 1.256e-06; font-family: sans-serif; font-weight: normal; fill: rgb(0, 0, 0);" x="0.00007437231567525101">2088, 2533, 2164</text><path d="M0,0L0.0000730923156737043,-2.0556019286476467e-8L0.0000730923156737043,2.0556019286476467e-8L0,0" style="fill: rgb(0, 0, 0);"></path></g><g class="node" transform="translate(569.9625854492188,228.4971923828125)" id="node_7111" style="cursor: crosshair;"><circle class="node" r="4" style="fill: black;"></circle><rect class="node" y="-4px" x="-4px" width="0px" height="0px" style="stroke-width: 2px; stroke: black;"></rect><text x="13" dy=".3em" dx="-.3em" text-anchor="start" font-size="14px" style="fill-opacity: 1; font-family: sans-serif; font-weight: normal; fill: black;">2164_OM-RGC_v1_006482281</text><text class="triangleText" dy=".35em" font-size="14px" style="fill-opacity: 1e-06; font-family: sans-serif;"></text><path d="M0,0L0,0L0,0L0,0"></path></g><g class="node" transform="translate(569.9578247070312,206.7355499267578)" id="node_8958" style="cursor: crosshair;"><circle class="node" r="4" style="fill: black;"></circle><rect class="node" y="-4px" x="-4px" width="0px" height="0px" style="stroke-width: 2px; stroke: black;"></rect><text x="13" dy=".3em" dx="-.3em" text-anchor="start" font-size="14px" style="fill-opacity: 1; font-family: sans-serif; font-weight: normal; fill: black;">2533_OM-RGC_v1_009416581</text><text class="triangleText" dy=".35em" font-size="14px" style="fill-opacity: 1e-06; font-family: sans-serif;"></text><path d="M0,0L0,0L0,0L0,0"></path></g><g class="node" transform="translate(569.9578247070312,184.9739227294922)" id="node_7372" style="cursor: crosshair;"><circle class="node" r="4" style="fill: black;"></circle><rect class="node" y="-4px" x="-4px" width="0px" height="0px" style="stroke-width: 2px; stroke: black;"></rect><text x="13" dy=".3em" dx="-.3em" text-anchor="start" font-size="14px" style="fill-opacity: 1; font-family: sans-serif; font-weight: normal; fill: black;">2088_OM-RGC_v1_015889113</text><text class="triangleText" dy=".35em" font-size="14px" style="fill-opacity: 1e-06; font-family: sans-serif;"></text><path d="M0,0L0,0L0,0L0,0"></path></g><g class="node" transform="translate(326.2099609375,195.854736328125)" id="node_3488" style="cursor: crosshair;"><circle class="node" r="4" style="fill: black;"></circle><rect class="node" y="-4px" x="-4px" width="0px" height="0px" style="stroke-width: 2px; stroke: black;"></rect><text x="-13" dy="-.3em" dx=".3em" text-anchor="end" font-size="14px" style="fill-opacity: 1; font-family: sans-serif; font-weight: normal;"></text><text class="triangleText" dy=".35em" font-size="14px" style="fill-opacity: 1e-06; font-family: sans-serif;" x="0"></text><path d="M0,0L0,0L0,0L0,0"></path></g></g></svg>